<svg width="109" height="28" viewBox="0 0 109 28" fill="none" xmlns="http://www.w3.org/2000/svg">
<g clip-path="url(#clip0_2_16)">
<path d="M3.17917 5.56381V27.5477H0V0.226171H3.17917L18.9842 22.0291V0.226171H22.1633V27.5477H18.9842L3.17917 5.56381Z" fill="black"/>
<path d="M46.5975 18.5008H28.5217C28.9758 22.5719 31.9734 25.2859 36.0609 25.2859C38.3771 25.2859 40.4208 24.517 41.7833 22.7981H45.2804C43.7817 26.0097 40.1938 27.9548 36.0609 27.9548C29.8388 27.9548 25.4333 23.6123 25.4333 17.37C25.4333 11.1276 29.8388 6.78514 36.0609 6.78514C42.2829 6.78514 46.6884 11.1729 46.6884 17.37C46.6884 17.7318 46.6429 18.0937 46.5975 18.5008ZM28.5671 15.8772H43.4638C42.8733 11.9871 40.0121 9.45396 36.0609 9.45396C32.1096 9.45396 29.1575 11.9871 28.5671 15.8772Z" fill="black"/>
<path d="M49.8221 7.14701H52.9104V19.3603C52.9104 22.7981 54.9542 25.1502 58.4058 25.1502C61.8575 25.1502 63.9012 22.7981 63.9012 19.3603V7.14701H66.9442V27.5477H63.9012V25.105C62.5387 26.9596 60.3588 28.0452 58.0425 27.9548C53.0467 27.9548 49.8675 24.4265 49.8675 19.3603L49.8221 7.14701Z" fill="black"/>
<path d="M71.395 7.14701H74.4834V9.99677L81.6138 6.92084V10.0872L74.4834 13.0275V27.5477H71.395V7.14701Z" fill="black"/>
<path d="M83.6121 17.4152C83.6121 11.2181 88.0175 6.83037 94.2396 6.83037C100.462 6.83037 104.867 11.2633 104.867 17.4152C104.867 23.567 100.462 28 94.2396 28C88.0175 28 83.6121 23.6575 83.6121 17.4152ZM101.779 17.4152C101.779 12.7561 98.6905 9.54443 94.2396 9.54443C89.7888 9.54443 86.6096 12.7561 86.6096 17.4152C86.6096 22.0743 89.7888 25.2407 94.2396 25.2407C98.6905 25.2407 101.779 22.0743 101.779 17.4152Z" fill="black"/>
<path d="M106.093 5.78998C104.504 5.78998 103.187 4.47819 103.187 2.89499C103.187 1.31179 104.504 0 106.093 0C107.683 0 109 1.31179 109 2.89499C109 4.47819 107.683 5.78998 106.093 5.78998ZM106.093 0.588045C104.822 0.588045 103.777 1.62843 103.777 2.89499C103.777 4.16155 104.822 5.20194 106.093 5.20194C107.365 5.20194 108.41 4.16155 108.41 2.89499C108.41 1.62843 107.365 0.588045 106.093 0.588045Z" fill="black"/>
<path d="M106.002 3.21163H105.73V4.29725H105.14V1.40226H106.275C106.775 1.35703 107.183 1.7189 107.229 2.21648C107.229 2.26171 107.229 2.26171 107.229 2.30695C107.229 2.71406 107.002 3.0307 106.593 3.12116L107.229 4.29725H106.593L106.002 3.21163ZM106.184 2.71406C106.457 2.71406 106.638 2.53312 106.638 2.30695C106.638 2.08078 106.457 1.89984 106.184 1.89984H105.73V2.71406H106.184Z" fill="black"/>
</g>
<defs>
<clipPath id="clip0_2_16">
<rect width="109" height="28" fill="white"/>
</clipPath>
</defs>
</svg>
