<svg width="1440" height="101" viewBox="0 0 1440 101" fill="none" xmlns="http://www.w3.org/2000/svg">
<g clip-path="url(#clip0_2_84)">
<path d="M202 30.8446C103.47 65.9112 0.172974 88.1668 -103.946 69.6335C-178.162 56.4335 -248.995 26.9557 -325.027 24.4446C-379.48 22.5531 -433.898 29.1425 -486.432 43.989C-540.346 59.3668 -591.124 75.7668 -647.654 76.2668C-703.643 76.7779 -759.308 66.7446 -813.168 51.6113C-835.016 45.4668 -856.627 38.4557 -878.032 30.8446C-935.937 10.3545 -996.76 -0.06989 -1058 0.000144348L-1058 100H382V0.000144348C320.749 -0.073596 259.915 10.3508 202 30.8446Z" fill="#005466"/>
</g>
<g clip-path="url(#clip1_2_84)">
<path d="M1641 30.8446C1542.47 65.9112 1439.17 88.1668 1335.05 69.6335C1260.84 56.4335 1190.01 26.9557 1113.97 24.4446C1059.52 22.5531 1005.1 29.1425 952.568 43.989C898.654 59.3668 847.876 75.7668 791.346 76.2668C735.357 76.7779 679.692 66.7446 625.832 51.6113C603.984 45.4668 582.373 38.4557 560.968 30.8446C503.063 10.3545 442.24 -0.06989 381 0.000144348L381 100H1821V0.000144348C1759.75 -0.073596 1698.91 10.3508 1641 30.8446Z" fill="#005466"/>
<path d="M1212.04 7.89062L1214.36 13.6914L1216.68 7.89062H1217.9V15H1216.96V12.2314L1217.05 9.24316L1214.72 15H1214L1211.67 9.25781L1211.76 12.2314V15H1210.83V7.89062H1212.04ZM1224.97 13.1445H1221.99L1221.32 15H1220.36L1223.07 7.89062H1223.89L1226.61 15H1225.65L1224.97 13.1445ZM1222.27 12.373H1224.69L1223.48 9.04785L1222.27 12.373ZM1230.81 11.8066H1229.95V15H1229.01V7.89062H1229.95V11.0254H1230.68L1233.17 7.89062H1234.33L1231.62 11.3379L1234.53 15H1233.39L1230.81 11.8066ZM1240.81 11.7139H1237.73V14.2334H1241.31V15H1236.79V7.89062H1241.26V8.66211H1237.73V10.9473H1240.81V11.7139ZM1248.89 8.66211H1246.6V15H1245.67V8.66211H1243.39V7.89062H1248.89V8.66211ZM1256.87 11.8066H1256.01V15H1255.07V7.89062H1256.01V11.0254H1256.74L1259.23 7.89062H1260.39L1257.68 11.3379L1260.59 15H1259.44L1256.87 11.8066ZM1266.78 13.1445H1263.8L1263.13 15H1262.16L1264.88 7.89062H1265.7L1268.42 15H1267.46L1266.78 13.1445ZM1264.08 12.373H1266.5L1265.29 9.04785L1264.08 12.373ZM1276.24 15H1275.3V11.7139H1271.71V15H1270.78V7.89062H1271.71V10.9473H1275.3V7.89062H1276.24V15ZM1283.32 13.1445H1280.34L1279.67 15H1278.7L1281.42 7.89062H1282.24L1284.96 15H1284L1283.32 13.1445ZM1280.62 12.373H1283.04L1281.83 9.04785L1280.62 12.373ZM1292.78 7.89062V15H1291.84V8.66211H1289.29L1289.17 11.4795C1289.12 12.4235 1289.02 13.1331 1288.87 13.6084C1288.73 14.0837 1288.52 14.4336 1288.24 14.6582C1287.96 14.8796 1287.58 14.9935 1287.12 15H1286.81V14.2334L1287 14.2236C1287.31 14.2008 1287.54 14.1032 1287.7 13.9307C1287.86 13.7549 1287.99 13.4766 1288.07 13.0957C1288.16 12.7148 1288.22 12.1289 1288.25 11.3379L1288.4 7.89062H1292.78ZM1299.9 13.1445H1296.92L1296.25 15H1295.28L1298 7.89062H1298.82L1301.54 15H1300.58L1299.9 13.1445ZM1297.2 12.373H1299.62L1298.41 9.04785L1297.2 12.373ZM1315.44 12.5488C1315.4 13.3366 1315.2 13.9583 1314.85 14.4141C1314.5 14.8698 1314.03 15.0977 1313.44 15.0977C1312.83 15.0977 1312.44 14.8242 1312.27 14.2773C1312.09 14.554 1311.89 14.7607 1311.66 14.8975C1311.44 15.0309 1311.2 15.0977 1310.96 15.0977C1310.5 15.0977 1310.15 14.9089 1309.91 14.5312C1309.68 14.1536 1309.59 13.6312 1309.65 12.9639C1309.7 12.4268 1309.82 11.9482 1310.02 11.5283C1310.21 11.1051 1310.47 10.7731 1310.78 10.5322C1311.09 10.2913 1311.42 10.1709 1311.76 10.1709C1312.02 10.1709 1312.26 10.2067 1312.47 10.2783C1312.68 10.3467 1312.91 10.4834 1313.17 10.6885L1312.92 13.3936C1312.85 14.1455 1313.06 14.5215 1313.54 14.5215C1313.91 14.5215 1314.21 14.3392 1314.44 13.9746C1314.66 13.61 1314.79 13.1348 1314.81 12.5488C1314.87 11.2826 1314.63 10.3174 1314.1 9.65332C1313.57 8.98926 1312.76 8.65723 1311.67 8.65723C1311.02 8.65723 1310.44 8.81999 1309.93 9.14551C1309.42 9.46777 1309.02 9.9349 1308.73 10.5469C1308.43 11.1589 1308.27 11.8652 1308.23 12.666C1308.2 13.4733 1308.29 14.1748 1308.53 14.7705C1308.76 15.363 1309.12 15.8154 1309.6 16.1279C1310.08 16.4437 1310.66 16.6016 1311.34 16.6016C1311.63 16.6016 1311.93 16.5658 1312.22 16.4941C1312.51 16.4225 1312.76 16.3298 1312.96 16.2158L1313.14 16.7773C1312.93 16.9043 1312.67 17.0085 1312.33 17.0898C1312 17.1712 1311.66 17.2119 1311.32 17.2119C1310.51 17.2119 1309.81 17.028 1309.22 16.6602C1308.63 16.2956 1308.2 15.7682 1307.9 15.0781C1307.61 14.3913 1307.49 13.5872 1307.53 12.666C1307.57 11.7708 1307.77 10.9668 1308.13 10.2539C1308.49 9.53776 1308.98 8.986 1309.6 8.59863C1310.21 8.20801 1310.91 8.0127 1311.69 8.0127C1312.5 8.0127 1313.2 8.19499 1313.78 8.55957C1314.36 8.92415 1314.79 9.44987 1315.07 10.1367C1315.35 10.8236 1315.48 11.6276 1315.44 12.5488ZM1310.43 12.9639C1310.38 13.4261 1310.42 13.7809 1310.55 14.0283C1310.69 14.2757 1310.9 14.3994 1311.18 14.3994C1311.38 14.3994 1311.57 14.3164 1311.74 14.1504C1311.93 13.9844 1312.08 13.7467 1312.19 13.4375L1312.2 13.3936L1312.42 10.9375C1312.24 10.8431 1312.05 10.7959 1311.84 10.7959C1311.46 10.7959 1311.14 10.9896 1310.89 11.377C1310.64 11.7643 1310.49 12.2933 1310.43 12.9639ZM1322.08 11.8604H1319.1V15H1318.16V7.89062H1322.56V8.66211H1319.1V11.0938H1322.08V11.8604ZM1326.09 15H1325.16V7.89062H1326.09V15ZM1334.46 14.0674C1334.22 14.4124 1333.88 14.6712 1333.45 14.8438C1333.02 15.013 1332.52 15.0977 1331.95 15.0977C1331.37 15.0977 1330.85 14.9626 1330.4 14.6924C1329.95 14.4189 1329.61 14.0316 1329.36 13.5303C1329.11 13.029 1328.99 12.4479 1328.98 11.7871V11.167C1328.98 10.096 1329.23 9.26595 1329.73 8.67676C1330.23 8.08757 1330.93 7.79297 1331.84 7.79297C1332.58 7.79297 1333.18 7.9834 1333.63 8.36426C1334.08 8.74186 1334.36 9.27897 1334.46 9.97559H1333.52C1333.35 9.03483 1332.79 8.56445 1331.84 8.56445C1331.22 8.56445 1330.74 8.78581 1330.41 9.22852C1330.09 9.66797 1329.93 10.306 1329.92 11.1426V11.7236C1329.92 12.5212 1330.11 13.1559 1330.47 13.6279C1330.84 14.0967 1331.33 14.3311 1331.95 14.3311C1332.3 14.3311 1332.61 14.292 1332.87 14.2139C1333.14 14.1357 1333.36 14.0039 1333.53 13.8184V12.2217H1331.88V11.46H1334.46V14.0674ZM1338.64 7.89062L1340.96 13.6914L1343.29 7.89062H1344.5V15H1343.57V12.2314L1343.65 9.24316L1341.32 15H1340.6L1338.27 9.25781L1338.37 12.2314V15H1337.43V7.89062H1338.64ZM1351.57 13.1445H1348.59L1347.92 15H1346.96L1349.67 7.89062H1350.49L1353.21 15H1352.25L1351.57 13.1445ZM1348.88 12.373H1351.29L1350.08 9.04785L1348.88 12.373ZM1359.99 15H1355.34V14.3506L1357.8 11.6162C1358.16 11.2028 1358.41 10.8675 1358.55 10.6104C1358.69 10.3499 1358.76 10.0814 1358.76 9.80469C1358.76 9.43359 1358.65 9.12923 1358.42 8.8916C1358.2 8.65397 1357.9 8.53516 1357.52 8.53516C1357.07 8.53516 1356.72 8.66374 1356.47 8.9209C1356.23 9.1748 1356.1 9.52962 1356.1 9.98535H1355.2C1355.2 9.33105 1355.41 8.80208 1355.83 8.39844C1356.25 7.99479 1356.82 7.79297 1357.52 7.79297C1358.18 7.79297 1358.71 7.96712 1359.09 8.31543C1359.47 8.66048 1359.67 9.12109 1359.67 9.69727C1359.67 10.3971 1359.22 11.2305 1358.33 12.1973L1356.42 14.2627H1359.99V15ZM1368.05 15H1367.11V11.7139H1363.52V15H1362.58V7.89062H1363.52V10.9473H1367.11V7.89062H1368.05V15ZM1375.88 8.66211H1373.59V15H1372.66V8.66211H1370.38V7.89062H1375.88V8.66211ZM1379.55 7.89062L1381.87 13.6914L1384.19 7.89062H1385.41V15H1384.47V12.2314L1384.56 9.24316L1382.23 15H1381.51L1379.18 9.25781L1379.27 12.2314V15H1378.33V7.89062H1379.55ZM1389.41 14.2334H1392.78V15H1388.46V7.89062H1389.41V14.2334Z" fill="#E4E4E4"/>
</g>
<defs>
<clipPath id="clip0_2_84">
<rect width="1440" height="100" fill="white" transform="translate(-1058)"/>
</clipPath>
<clipPath id="clip1_2_84">
<rect width="1440" height="100" fill="white" transform="translate(381)"/>
</clipPath>
</defs>
</svg>
